<?xml version="1.0" encoding="UTF-8" standalone="no"?><!DOCTYPE svg PUBLIC "-//W3C//DTD SVG 1.1//EN" "http://www.w3.org/Graphics/SVG/1.1/DTD/svg11.dtd"><!-- Generated by graphviz version 2.40.1 (20161225.0304)
 --><!-- Title: Tree Pages: 1 --><svg xmlns="http://www.w3.org/2000/svg" xmlns:xlink="http://www.w3.org/1999/xlink" width="710pt" height="620pt" viewBox="0.00 0.00 710.00 620.00">
<g id="graph0" class="graph" transform="scale(1 1) rotate(0) translate(4 616)">
<title>Tree</title>
<polygon fill="#ffffff" stroke="transparent" points="-4,4 -4,-616 706,-616 706,4 -4,4"/>
<!-- 41 -->
<g id="node1" class="node">
<title>41</title>
<ellipse fill="none" stroke="#000000" cx="261" cy="-594" rx="27" ry="18"/>
<text text-anchor="middle" x="261" y="-589.8" font-family="Times,serif" font-size="14.00" fill="#000000">41</text>
</g>
<!-- 34 -->
<g id="node2" class="node">
<title>34</title>
<ellipse fill="none" stroke="#000000" cx="225" cy="-522" rx="27" ry="18"/>
<text text-anchor="middle" x="225" y="-517.8" font-family="Times,serif" font-size="14.00" fill="#000000">34</text>
</g>
<!-- 41&#45;&gt;34 -->
<g id="edge1" class="edge">
<title>41-&gt;34</title>
<path fill="none" stroke="#000000" d="M252.2854,-576.5708C248.0403,-568.0807 242.8464,-557.6929 238.1337,-548.2674"/>
<polygon fill="#000000" stroke="#000000" points="241.237,-546.6477 233.6343,-539.2687 234.976,-549.7782 241.237,-546.6477"/>
</g>
<!-- 67 -->
<g id="node18" class="node">
<title>67</title>
<ellipse fill="none" stroke="#000000" cx="333" cy="-522" rx="27" ry="18"/>
<text text-anchor="middle" x="333" y="-517.8" font-family="Times,serif" font-size="14.00" fill="#000000">67</text>
</g>
<!-- 41&#45;&gt;67 -->
<g id="edge17" class="edge">
<title>41-&gt;67</title>
<path fill="none" stroke="#000000" d="M276.2693,-578.7307C286.197,-568.803 299.3153,-555.6847 310.4363,-544.5637"/>
<polygon fill="#000000" stroke="#000000" points="313.1564,-546.7933 317.7527,-537.2473 308.2067,-541.8436 313.1564,-546.7933"/>
</g>
<!-- 0 -->
<g id="node3" class="node">
<title>0</title>
<ellipse fill="none" stroke="#000000" cx="135" cy="-450" rx="27" ry="18"/>
<text text-anchor="middle" x="135" y="-445.8" font-family="Times,serif" font-size="14.00" fill="#000000">0</text>
</g>
<!-- 34&#45;&gt;0 -->
<g id="edge2" class="edge">
<title>34-&gt;0</title>
<path fill="none" stroke="#000000" d="M207.6471,-508.1177C194.2003,-497.3602 175.3761,-482.3009 160.259,-470.2072"/>
<polygon fill="#000000" stroke="#000000" points="162.2948,-467.3536 152.2996,-463.8397 157.9219,-472.8197 162.2948,-467.3536"/>
</g>
<!-- 36 -->
<g id="node15" class="node">
<title>36</title>
<ellipse fill="none" stroke="#000000" cx="225" cy="-450" rx="27" ry="18"/>
<text text-anchor="middle" x="225" y="-445.8" font-family="Times,serif" font-size="14.00" fill="#000000">36</text>
</g>
<!-- 34&#45;&gt;36 -->
<g id="edge14" class="edge">
<title>34-&gt;36</title>
<path fill="none" stroke="#000000" d="M225,-503.8314C225,-496.131 225,-486.9743 225,-478.4166"/>
<polygon fill="#000000" stroke="#000000" points="228.5001,-478.4132 225,-468.4133 221.5001,-478.4133 228.5001,-478.4132"/>
</g>
<!-- 24 -->
<g id="node4" class="node">
<title>24</title>
<ellipse fill="none" stroke="#000000" cx="99" cy="-378" rx="27" ry="18"/>
<text text-anchor="middle" x="99" y="-373.8" font-family="Times,serif" font-size="14.00" fill="#000000">24</text>
</g>
<!-- 0&#45;&gt;24 -->
<g id="edge3" class="edge">
<title>0-&gt;24</title>
<path fill="none" stroke="#000000" d="M126.2854,-432.5708C122.0403,-424.0807 116.8464,-413.6929 112.1337,-404.2674"/>
<polygon fill="#000000" stroke="#000000" points="115.237,-402.6477 107.6343,-395.2687 108.976,-405.7782 115.237,-402.6477"/>
</g>
<!-- 11 -->
<g id="node5" class="node">
<title>11</title>
<ellipse fill="none" stroke="#000000" cx="99" cy="-306" rx="27" ry="18"/>
<text text-anchor="middle" x="99" y="-301.8" font-family="Times,serif" font-size="14.00" fill="#000000">11</text>
</g>
<!-- 24&#45;&gt;11 -->
<g id="edge4" class="edge">
<title>24-&gt;11</title>
<path fill="none" stroke="#000000" d="M99,-359.8314C99,-352.131 99,-342.9743 99,-334.4166"/>
<polygon fill="#000000" stroke="#000000" points="102.5001,-334.4132 99,-324.4133 95.5001,-334.4133 102.5001,-334.4132"/>
</g>
<!-- 33 -->
<g id="node13" class="node">
<title>33</title>
<ellipse fill="none" stroke="#000000" cx="171" cy="-306" rx="27" ry="18"/>
<text text-anchor="middle" x="171" y="-301.8" font-family="Times,serif" font-size="14.00" fill="#000000">33</text>
</g>
<!-- 24&#45;&gt;33 -->
<g id="edge12" class="edge">
<title>24-&gt;33</title>
<path fill="none" stroke="#000000" d="M114.2693,-362.7307C124.197,-352.803 137.3153,-339.6847 148.4363,-328.5637"/>
<polygon fill="#000000" stroke="#000000" points="151.1564,-330.7933 155.7527,-321.2473 146.2067,-325.8436 151.1564,-330.7933"/>
</g>
<!-- 4 -->
<g id="node6" class="node">
<title>4</title>
<ellipse fill="none" stroke="#000000" cx="27" cy="-234" rx="27" ry="18"/>
<text text-anchor="middle" x="27" y="-229.8" font-family="Times,serif" font-size="14.00" fill="#000000">4</text>
</g>
<!-- 11&#45;&gt;4 -->
<g id="edge5" class="edge">
<title>11-&gt;4</title>
<path fill="none" stroke="#000000" d="M83.7307,-290.7307C73.803,-280.803 60.6847,-267.6847 49.5637,-256.5637"/>
<polygon fill="#000000" stroke="#000000" points="51.7933,-253.8436 42.2473,-249.2473 46.8436,-258.7933 51.7933,-253.8436"/>
</g>
<!-- 21 -->
<g id="node9" class="node">
<title>21</title>
<ellipse fill="none" stroke="#000000" cx="99" cy="-234" rx="27" ry="18"/>
<text text-anchor="middle" x="99" y="-229.8" font-family="Times,serif" font-size="14.00" fill="#000000">21</text>
</g>
<!-- 11&#45;&gt;21 -->
<g id="edge8" class="edge">
<title>11-&gt;21</title>
<path fill="none" stroke="#000000" d="M99,-287.8314C99,-280.131 99,-270.9743 99,-262.4166"/>
<polygon fill="#000000" stroke="#000000" points="102.5001,-262.4132 99,-252.4133 95.5001,-262.4133 102.5001,-262.4132"/>
</g>
<!-- 2 -->
<g id="node7" class="node">
<title>2</title>
<ellipse fill="none" stroke="#000000" cx="27" cy="-162" rx="27" ry="18"/>
<text text-anchor="middle" x="27" y="-157.8" font-family="Times,serif" font-size="14.00" fill="#000000">2</text>
</g>
<!-- 4&#45;&gt;2 -->
<g id="edge6" class="edge">
<title>4-&gt;2</title>
<path fill="none" stroke="#000000" d="M27,-215.8314C27,-208.131 27,-198.9743 27,-190.4166"/>
<polygon fill="#000000" stroke="#000000" points="30.5001,-190.4132 27,-180.4133 23.5001,-190.4133 30.5001,-190.4132"/>
</g>
<!-- 3 -->
<g id="node8" class="node">
<title>3</title>
<ellipse fill="none" stroke="#000000" cx="27" cy="-90" rx="27" ry="18"/>
<text text-anchor="middle" x="27" y="-85.8" font-family="Times,serif" font-size="14.00" fill="#000000">3</text>
</g>
<!-- 2&#45;&gt;3 -->
<g id="edge7" class="edge">
<title>2-&gt;3</title>
<path fill="none" stroke="#000000" d="M27,-143.8314C27,-136.131 27,-126.9743 27,-118.4166"/>
<polygon fill="#000000" stroke="#000000" points="30.5001,-118.4132 27,-108.4133 23.5001,-118.4133 30.5001,-118.4132"/>
</g>
<!-- 16 -->
<g id="node10" class="node">
<title>16</title>
<ellipse fill="none" stroke="#000000" cx="99" cy="-162" rx="27" ry="18"/>
<text text-anchor="middle" x="99" y="-157.8" font-family="Times,serif" font-size="14.00" fill="#000000">16</text>
</g>
<!-- 21&#45;&gt;16 -->
<g id="edge9" class="edge">
<title>21-&gt;16</title>
<path fill="none" stroke="#000000" d="M99,-215.8314C99,-208.131 99,-198.9743 99,-190.4166"/>
<polygon fill="#000000" stroke="#000000" points="102.5001,-190.4132 99,-180.4133 95.5001,-190.4133 102.5001,-190.4132"/>
</g>
<!-- 22 -->
<g id="node12" class="node">
<title>22</title>
<ellipse fill="none" stroke="#000000" cx="171" cy="-162" rx="27" ry="18"/>
<text text-anchor="middle" x="171" y="-157.8" font-family="Times,serif" font-size="14.00" fill="#000000">22</text>
</g>
<!-- 21&#45;&gt;22 -->
<g id="edge11" class="edge">
<title>21-&gt;22</title>
<path fill="none" stroke="#000000" d="M114.2693,-218.7307C124.197,-208.803 137.3153,-195.6847 148.4363,-184.5637"/>
<polygon fill="#000000" stroke="#000000" points="151.1564,-186.7933 155.7527,-177.2473 146.2067,-181.8436 151.1564,-186.7933"/>
</g>
<!-- 12 -->
<g id="node11" class="node">
<title>12</title>
<ellipse fill="none" stroke="#000000" cx="99" cy="-90" rx="27" ry="18"/>
<text text-anchor="middle" x="99" y="-85.8" font-family="Times,serif" font-size="14.00" fill="#000000">12</text>
</g>
<!-- 16&#45;&gt;12 -->
<g id="edge10" class="edge">
<title>16-&gt;12</title>
<path fill="none" stroke="#000000" d="M99,-143.8314C99,-136.131 99,-126.9743 99,-118.4166"/>
<polygon fill="#000000" stroke="#000000" points="102.5001,-118.4132 99,-108.4133 95.5001,-118.4133 102.5001,-118.4132"/>
</g>
<!-- 26 -->
<g id="node14" class="node">
<title>26</title>
<ellipse fill="none" stroke="#000000" cx="171" cy="-234" rx="27" ry="18"/>
<text text-anchor="middle" x="171" y="-229.8" font-family="Times,serif" font-size="14.00" fill="#000000">26</text>
</g>
<!-- 33&#45;&gt;26 -->
<g id="edge13" class="edge">
<title>33-&gt;26</title>
<path fill="none" stroke="#000000" d="M171,-287.8314C171,-280.131 171,-270.9743 171,-262.4166"/>
<polygon fill="#000000" stroke="#000000" points="174.5001,-262.4132 171,-252.4133 167.5001,-262.4133 174.5001,-262.4132"/>
</g>
<!-- 35 -->
<g id="node16" class="node">
<title>35</title>
<ellipse fill="none" stroke="#000000" cx="171" cy="-378" rx="27" ry="18"/>
<text text-anchor="middle" x="171" y="-373.8" font-family="Times,serif" font-size="14.00" fill="#000000">35</text>
</g>
<!-- 36&#45;&gt;35 -->
<g id="edge15" class="edge">
<title>36-&gt;35</title>
<path fill="none" stroke="#000000" d="M212.7466,-433.6621C205.8423,-424.4564 197.0823,-412.7764 189.3715,-402.4953"/>
<polygon fill="#000000" stroke="#000000" points="192.005,-400.1733 183.2049,-394.2733 186.405,-404.3733 192.005,-400.1733"/>
</g>
<!-- 38 -->
<g id="node17" class="node">
<title>38</title>
<ellipse fill="none" stroke="#000000" cx="243" cy="-378" rx="27" ry="18"/>
<text text-anchor="middle" x="243" y="-373.8" font-family="Times,serif" font-size="14.00" fill="#000000">38</text>
</g>
<!-- 36&#45;&gt;38 -->
<g id="edge16" class="edge">
<title>36-&gt;38</title>
<path fill="none" stroke="#000000" d="M229.4494,-432.2022C231.4398,-424.2406 233.8332,-414.6671 236.0511,-405.7957"/>
<polygon fill="#000000" stroke="#000000" points="239.5094,-406.3929 238.5394,-395.8425 232.7184,-404.6951 239.5094,-406.3929"/>
</g>
<!-- 58 -->
<g id="node19" class="node">
<title>58</title>
<ellipse fill="none" stroke="#000000" cx="333" cy="-450" rx="27" ry="18"/>
<text text-anchor="middle" x="333" y="-445.8" font-family="Times,serif" font-size="14.00" fill="#000000">58</text>
</g>
<!-- 67&#45;&gt;58 -->
<g id="edge18" class="edge">
<title>67-&gt;58</title>
<path fill="none" stroke="#000000" d="M333,-503.8314C333,-496.131 333,-486.9743 333,-478.4166"/>
<polygon fill="#000000" stroke="#000000" points="336.5001,-478.4132 333,-468.4133 329.5001,-478.4133 336.5001,-478.4132"/>
</g>
<!-- 69 -->
<g id="node27" class="node">
<title>69</title>
<ellipse fill="none" stroke="#000000" cx="468" cy="-450" rx="27" ry="18"/>
<text text-anchor="middle" x="468" y="-445.8" font-family="Times,serif" font-size="14.00" fill="#000000">69</text>
</g>
<!-- 67&#45;&gt;69 -->
<g id="edge26" class="edge">
<title>67-&gt;69</title>
<path fill="none" stroke="#000000" d="M354.0938,-510.75C376.5496,-498.7735 412.2866,-479.7138 437.7401,-466.1386"/>
<polygon fill="#000000" stroke="#000000" points="439.4324,-469.2028 446.6088,-461.4086 436.1382,-463.0263 439.4324,-469.2028"/>
</g>
<!-- 45 -->
<g id="node20" class="node">
<title>45</title>
<ellipse fill="none" stroke="#000000" cx="315" cy="-378" rx="27" ry="18"/>
<text text-anchor="middle" x="315" y="-373.8" font-family="Times,serif" font-size="14.00" fill="#000000">45</text>
</g>
<!-- 58&#45;&gt;45 -->
<g id="edge19" class="edge">
<title>58-&gt;45</title>
<path fill="none" stroke="#000000" d="M328.5506,-432.2022C326.5602,-424.2406 324.1668,-414.6671 321.9489,-405.7957"/>
<polygon fill="#000000" stroke="#000000" points="325.2816,-404.6951 319.4606,-395.8425 318.4906,-406.3929 325.2816,-404.6951"/>
</g>
<!-- 62 -->
<g id="node24" class="node">
<title>62</title>
<ellipse fill="none" stroke="#000000" cx="387" cy="-378" rx="27" ry="18"/>
<text text-anchor="middle" x="387" y="-373.8" font-family="Times,serif" font-size="14.00" fill="#000000">62</text>
</g>
<!-- 58&#45;&gt;62 -->
<g id="edge23" class="edge">
<title>58-&gt;62</title>
<path fill="none" stroke="#000000" d="M345.2534,-433.6621C352.1577,-424.4564 360.9177,-412.7764 368.6285,-402.4953"/>
<polygon fill="#000000" stroke="#000000" points="371.595,-404.3733 374.7951,-394.2733 365.995,-400.1733 371.595,-404.3733"/>
</g>
<!-- 42 -->
<g id="node21" class="node">
<title>42</title>
<ellipse fill="none" stroke="#000000" cx="243" cy="-306" rx="27" ry="18"/>
<text text-anchor="middle" x="243" y="-301.8" font-family="Times,serif" font-size="14.00" fill="#000000">42</text>
</g>
<!-- 45&#45;&gt;42 -->
<g id="edge20" class="edge">
<title>45-&gt;42</title>
<path fill="none" stroke="#000000" d="M299.7307,-362.7307C289.803,-352.803 276.6847,-339.6847 265.5637,-328.5637"/>
<polygon fill="#000000" stroke="#000000" points="267.7933,-325.8436 258.2473,-321.2473 262.8436,-330.7933 267.7933,-325.8436"/>
</g>
<!-- 53 -->
<g id="node22" class="node">
<title>53</title>
<ellipse fill="none" stroke="#000000" cx="315" cy="-306" rx="27" ry="18"/>
<text text-anchor="middle" x="315" y="-301.8" font-family="Times,serif" font-size="14.00" fill="#000000">53</text>
</g>
<!-- 45&#45;&gt;53 -->
<g id="edge21" class="edge">
<title>45-&gt;53</title>
<path fill="none" stroke="#000000" d="M315,-359.8314C315,-352.131 315,-342.9743 315,-334.4166"/>
<polygon fill="#000000" stroke="#000000" points="318.5001,-334.4132 315,-324.4133 311.5001,-334.4133 318.5001,-334.4132"/>
</g>
<!-- 47 -->
<g id="node23" class="node">
<title>47</title>
<ellipse fill="none" stroke="#000000" cx="315" cy="-234" rx="27" ry="18"/>
<text text-anchor="middle" x="315" y="-229.8" font-family="Times,serif" font-size="14.00" fill="#000000">47</text>
</g>
<!-- 53&#45;&gt;47 -->
<g id="edge22" class="edge">
<title>53-&gt;47</title>
<path fill="none" stroke="#000000" d="M315,-287.8314C315,-280.131 315,-270.9743 315,-262.4166"/>
<polygon fill="#000000" stroke="#000000" points="318.5001,-262.4132 315,-252.4133 311.5001,-262.4133 318.5001,-262.4132"/>
</g>
<!-- 61 -->
<g id="node25" class="node">
<title>61</title>
<ellipse fill="none" stroke="#000000" cx="387" cy="-306" rx="27" ry="18"/>
<text text-anchor="middle" x="387" y="-301.8" font-family="Times,serif" font-size="14.00" fill="#000000">61</text>
</g>
<!-- 62&#45;&gt;61 -->
<g id="edge24" class="edge">
<title>62-&gt;61</title>
<path fill="none" stroke="#000000" d="M387,-359.8314C387,-352.131 387,-342.9743 387,-334.4166"/>
<polygon fill="#000000" stroke="#000000" points="390.5001,-334.4132 387,-324.4133 383.5001,-334.4133 390.5001,-334.4132"/>
</g>
<!-- 64 -->
<g id="node26" class="node">
<title>64</title>
<ellipse fill="none" stroke="#000000" cx="459" cy="-306" rx="27" ry="18"/>
<text text-anchor="middle" x="459" y="-301.8" font-family="Times,serif" font-size="14.00" fill="#000000">64</text>
</g>
<!-- 62&#45;&gt;64 -->
<g id="edge25" class="edge">
<title>62-&gt;64</title>
<path fill="none" stroke="#000000" d="M402.2693,-362.7307C412.197,-352.803 425.3153,-339.6847 436.4363,-328.5637"/>
<polygon fill="#000000" stroke="#000000" points="439.1564,-330.7933 443.7527,-321.2473 434.2067,-325.8436 439.1564,-330.7933"/>
</g>
<!-- 78 -->
<g id="node28" class="node">
<title>78</title>
<ellipse fill="none" stroke="#000000" cx="531" cy="-378" rx="27" ry="18"/>
<text text-anchor="middle" x="531" y="-373.8" font-family="Times,serif" font-size="14.00" fill="#000000">78</text>
</g>
<!-- 69&#45;&gt;78 -->
<g id="edge27" class="edge">
<title>69-&gt;78</title>
<path fill="none" stroke="#000000" d="M481.6701,-434.3771C490.1734,-424.659 501.2613,-411.987 510.7708,-401.1191"/>
<polygon fill="#000000" stroke="#000000" points="513.4056,-403.423 517.3566,-393.5924 508.1375,-398.8135 513.4056,-403.423"/>
</g>
<!-- 71 -->
<g id="node29" class="node">
<title>71</title>
<ellipse fill="none" stroke="#000000" cx="531" cy="-306" rx="27" ry="18"/>
<text text-anchor="middle" x="531" y="-301.8" font-family="Times,serif" font-size="14.00" fill="#000000">71</text>
</g>
<!-- 78&#45;&gt;71 -->
<g id="edge28" class="edge">
<title>78-&gt;71</title>
<path fill="none" stroke="#000000" d="M531,-359.8314C531,-352.131 531,-342.9743 531,-334.4166"/>
<polygon fill="#000000" stroke="#000000" points="534.5001,-334.4132 531,-324.4133 527.5001,-334.4133 534.5001,-334.4132"/>
</g>
<!-- 81 -->
<g id="node31" class="node">
<title>81</title>
<ellipse fill="none" stroke="#000000" cx="603" cy="-306" rx="27" ry="18"/>
<text text-anchor="middle" x="603" y="-301.8" font-family="Times,serif" font-size="14.00" fill="#000000">81</text>
</g>
<!-- 78&#45;&gt;81 -->
<g id="edge30" class="edge">
<title>78-&gt;81</title>
<path fill="none" stroke="#000000" d="M546.2693,-362.7307C556.197,-352.803 569.3153,-339.6847 580.4363,-328.5637"/>
<polygon fill="#000000" stroke="#000000" points="583.1564,-330.7933 587.7527,-321.2473 578.2067,-325.8436 583.1564,-330.7933"/>
</g>
<!-- 73 -->
<g id="node30" class="node">
<title>73</title>
<ellipse fill="none" stroke="#000000" cx="531" cy="-234" rx="27" ry="18"/>
<text text-anchor="middle" x="531" y="-229.8" font-family="Times,serif" font-size="14.00" fill="#000000">73</text>
</g>
<!-- 71&#45;&gt;73 -->
<g id="edge29" class="edge">
<title>71-&gt;73</title>
<path fill="none" stroke="#000000" d="M531,-287.8314C531,-280.131 531,-270.9743 531,-262.4166"/>
<polygon fill="#000000" stroke="#000000" points="534.5001,-262.4132 531,-252.4133 527.5001,-262.4133 534.5001,-262.4132"/>
</g>
<!-- 91 -->
<g id="node32" class="node">
<title>91</title>
<ellipse fill="none" stroke="#000000" cx="603" cy="-234" rx="27" ry="18"/>
<text text-anchor="middle" x="603" y="-229.8" font-family="Times,serif" font-size="14.00" fill="#000000">91</text>
</g>
<!-- 81&#45;&gt;91 -->
<g id="edge31" class="edge">
<title>81-&gt;91</title>
<path fill="none" stroke="#000000" d="M603,-287.8314C603,-280.131 603,-270.9743 603,-262.4166"/>
<polygon fill="#000000" stroke="#000000" points="606.5001,-262.4132 603,-252.4133 599.5001,-262.4133 606.5001,-262.4132"/>
</g>
<!-- 82 -->
<g id="node33" class="node">
<title>82</title>
<ellipse fill="none" stroke="#000000" cx="567" cy="-162" rx="27" ry="18"/>
<text text-anchor="middle" x="567" y="-157.8" font-family="Times,serif" font-size="14.00" fill="#000000">82</text>
</g>
<!-- 91&#45;&gt;82 -->
<g id="edge32" class="edge">
<title>91-&gt;82</title>
<path fill="none" stroke="#000000" d="M594.2854,-216.5708C590.0403,-208.0807 584.8464,-197.6929 580.1337,-188.2674"/>
<polygon fill="#000000" stroke="#000000" points="583.237,-186.6477 575.6343,-179.2687 576.976,-189.7782 583.237,-186.6477"/>
</g>
<!-- 95 -->
<g id="node34" class="node">
<title>95</title>
<ellipse fill="none" stroke="#000000" cx="639" cy="-162" rx="27" ry="18"/>
<text text-anchor="middle" x="639" y="-157.8" font-family="Times,serif" font-size="14.00" fill="#000000">95</text>
</g>
<!-- 91&#45;&gt;95 -->
<g id="edge33" class="edge">
<title>91-&gt;95</title>
<path fill="none" stroke="#000000" d="M611.7146,-216.5708C615.9597,-208.0807 621.1536,-197.6929 625.8663,-188.2674"/>
<polygon fill="#000000" stroke="#000000" points="629.024,-189.7782 630.3657,-179.2687 622.763,-186.6477 629.024,-189.7782"/>
</g>
<!-- 92 -->
<g id="node35" class="node">
<title>92</title>
<ellipse fill="none" stroke="#000000" cx="603" cy="-90" rx="27" ry="18"/>
<text text-anchor="middle" x="603" y="-85.8" font-family="Times,serif" font-size="14.00" fill="#000000">92</text>
</g>
<!-- 95&#45;&gt;92 -->
<g id="edge34" class="edge">
<title>95-&gt;92</title>
<path fill="none" stroke="#000000" d="M630.2854,-144.5708C626.0403,-136.0807 620.8464,-125.6929 616.1337,-116.2674"/>
<polygon fill="#000000" stroke="#000000" points="619.237,-114.6477 611.6343,-107.2687 612.976,-117.7782 619.237,-114.6477"/>
</g>
<!-- 99 -->
<g id="node37" class="node">
<title>99</title>
<ellipse fill="none" stroke="#000000" cx="675" cy="-90" rx="27" ry="18"/>
<text text-anchor="middle" x="675" y="-85.8" font-family="Times,serif" font-size="14.00" fill="#000000">99</text>
</g>
<!-- 95&#45;&gt;99 -->
<g id="edge36" class="edge">
<title>95-&gt;99</title>
<path fill="none" stroke="#000000" d="M647.7146,-144.5708C651.9597,-136.0807 657.1536,-125.6929 661.8663,-116.2674"/>
<polygon fill="#000000" stroke="#000000" points="665.024,-117.7782 666.3657,-107.2687 658.763,-114.6477 665.024,-117.7782"/>
</g>
<!-- 94 -->
<g id="node36" class="node">
<title>94</title>
<ellipse fill="none" stroke="#000000" cx="603" cy="-18" rx="27" ry="18"/>
<text text-anchor="middle" x="603" y="-13.8" font-family="Times,serif" font-size="14.00" fill="#000000">94</text>
</g>
<!-- 92&#45;&gt;94 -->
<g id="edge35" class="edge">
<title>92-&gt;94</title>
<path fill="none" stroke="#000000" d="M603,-71.8314C603,-64.131 603,-54.9743 603,-46.4166"/>
<polygon fill="#000000" stroke="#000000" points="606.5001,-46.4132 603,-36.4133 599.5001,-46.4133 606.5001,-46.4132"/>
</g>
</g>
</svg>